<mxfile host="Electron" agent="Mozilla/5.0 (Windows NT 10.0; Win64; x64) AppleWebKit/537.36 (KHTML, like Gecko) draw.io/26.0.9 Chrome/128.0.6613.186 Electron/32.2.5 Safari/537.36" version="26.0.9">
  <diagram name="Page-1" id="6UNQVIKXXVnOfhV4WYG4">
    <mxGraphModel dx="2261" dy="836" grid="1" gridSize="10" guides="1" tooltips="1" connect="1" arrows="1" fold="1" page="1" pageScale="1" pageWidth="827" pageHeight="1169" math="0" shadow="0">
      <root>
        <mxCell id="0" />
        <mxCell id="1" parent="0" />
        <mxCell id="ntYvt6KxzLv_E7mAvwDM-1" value="" style="rounded=0;whiteSpace=wrap;html=1;fillColor=#dae8fc;strokeColor=#6c8ebf;" vertex="1" parent="1">
          <mxGeometry x="60" y="60" width="120" height="60" as="geometry" />
        </mxCell>
        <mxCell id="ntYvt6KxzLv_E7mAvwDM-2" value="&lt;b&gt;client&lt;/b&gt;" style="text;html=1;align=center;verticalAlign=middle;whiteSpace=wrap;rounded=0;" vertex="1" parent="1">
          <mxGeometry x="90" y="75" width="60" height="30" as="geometry" />
        </mxCell>
        <mxCell id="ntYvt6KxzLv_E7mAvwDM-3" value="&lt;b&gt;server&lt;/b&gt;" style="rounded=0;whiteSpace=wrap;html=1;fillColor=#f8cecc;strokeColor=#b85450;" vertex="1" parent="1">
          <mxGeometry x="440" y="60" width="120" height="60" as="geometry" />
        </mxCell>
        <mxCell id="ntYvt6KxzLv_E7mAvwDM-4" value="cookie:{&lt;div&gt;sessionID&lt;/div&gt;&lt;div&gt;}&lt;/div&gt;" style="ellipse;whiteSpace=wrap;html=1;aspect=fixed;fillColor=#ffe6cc;strokeColor=#d79b00;" vertex="1" parent="1">
          <mxGeometry x="-40" y="280" width="80" height="80" as="geometry" />
        </mxCell>
        <mxCell id="ntYvt6KxzLv_E7mAvwDM-5" value="&lt;b&gt;Database&lt;/b&gt;" style="shape=cylinder3;whiteSpace=wrap;html=1;boundedLbl=1;backgroundOutline=1;size=15;fillColor=#d5e8d4;strokeColor=#82b366;" vertex="1" parent="1">
          <mxGeometry x="640" y="50" width="90" height="110" as="geometry" />
        </mxCell>
        <mxCell id="ntYvt6KxzLv_E7mAvwDM-6" value="" style="shape=flexArrow;endArrow=classic;html=1;rounded=0;exitX=1;exitY=0.5;exitDx=0;exitDy=0;" edge="1" parent="1" source="ntYvt6KxzLv_E7mAvwDM-3" target="ntYvt6KxzLv_E7mAvwDM-5">
          <mxGeometry width="50" height="50" relative="1" as="geometry">
            <mxPoint x="590" y="190" as="sourcePoint" />
            <mxPoint x="640" y="400" as="targetPoint" />
          </mxGeometry>
        </mxCell>
        <mxCell id="ntYvt6KxzLv_E7mAvwDM-7" value="" style="endArrow=none;html=1;rounded=0;entryX=0.5;entryY=1;entryDx=0;entryDy=0;" edge="1" parent="1" target="ntYvt6KxzLv_E7mAvwDM-3">
          <mxGeometry width="50" height="50" relative="1" as="geometry">
            <mxPoint x="500" y="520" as="sourcePoint" />
            <mxPoint x="640" y="400" as="targetPoint" />
          </mxGeometry>
        </mxCell>
        <mxCell id="ntYvt6KxzLv_E7mAvwDM-8" value="" style="endArrow=none;html=1;rounded=0;entryX=0.5;entryY=1;entryDx=0;entryDy=0;" edge="1" parent="1" target="ntYvt6KxzLv_E7mAvwDM-1">
          <mxGeometry width="50" height="50" relative="1" as="geometry">
            <mxPoint x="120" y="520" as="sourcePoint" />
            <mxPoint x="510" y="130" as="targetPoint" />
          </mxGeometry>
        </mxCell>
        <mxCell id="ntYvt6KxzLv_E7mAvwDM-9" value="" style="endArrow=classic;html=1;rounded=0;" edge="1" parent="1">
          <mxGeometry width="50" height="50" relative="1" as="geometry">
            <mxPoint x="120" y="160" as="sourcePoint" />
            <mxPoint x="500" y="160" as="targetPoint" />
          </mxGeometry>
        </mxCell>
        <mxCell id="ntYvt6KxzLv_E7mAvwDM-10" value="" style="endArrow=classic;html=1;rounded=0;" edge="1" parent="1">
          <mxGeometry width="50" height="50" relative="1" as="geometry">
            <mxPoint x="500" y="240" as="sourcePoint" />
            <mxPoint x="120" y="240" as="targetPoint" />
          </mxGeometry>
        </mxCell>
        <mxCell id="ntYvt6KxzLv_E7mAvwDM-11" value="" style="endArrow=classic;html=1;rounded=0;" edge="1" parent="1">
          <mxGeometry width="50" height="50" relative="1" as="geometry">
            <mxPoint x="120" y="320" as="sourcePoint" />
            <mxPoint x="500" y="320" as="targetPoint" />
          </mxGeometry>
        </mxCell>
        <mxCell id="ntYvt6KxzLv_E7mAvwDM-12" value="" style="endArrow=classic;html=1;rounded=0;" edge="1" parent="1">
          <mxGeometry width="50" height="50" relative="1" as="geometry">
            <mxPoint x="500" y="400" as="sourcePoint" />
            <mxPoint x="120" y="400" as="targetPoint" />
          </mxGeometry>
        </mxCell>
        <mxCell id="ntYvt6KxzLv_E7mAvwDM-13" value="" style="endArrow=none;html=1;rounded=0;fillColor=#ffe6cc;strokeColor=#d79b00;strokeWidth=5;" edge="1" parent="1">
          <mxGeometry width="50" height="50" relative="1" as="geometry">
            <mxPoint x="80" y="400" as="sourcePoint" />
            <mxPoint x="80" y="240" as="targetPoint" />
          </mxGeometry>
        </mxCell>
        <mxCell id="ntYvt6KxzLv_E7mAvwDM-14" value="Cookie&lt;div&gt;{sessionID}&lt;/div&gt;" style="ellipse;whiteSpace=wrap;html=1;fillColor=#fad7ac;strokeColor=#b46504;" vertex="1" parent="1">
          <mxGeometry x="250" y="180" width="120" height="50" as="geometry" />
        </mxCell>
        <mxCell id="ntYvt6KxzLv_E7mAvwDM-17" value="cookie" style="ellipse;whiteSpace=wrap;html=1;aspect=fixed;fillColor=#ffe6cc;strokeColor=#d79b00;" vertex="1" parent="1">
          <mxGeometry x="250" y="170" width="40" height="40" as="geometry" />
        </mxCell>
        <mxCell id="ntYvt6KxzLv_E7mAvwDM-18" value="Cookie&lt;div&gt;{sessionID}&lt;/div&gt;" style="ellipse;whiteSpace=wrap;html=1;fillColor=#fad7ac;strokeColor=#b46504;" vertex="1" parent="1">
          <mxGeometry x="320" y="260" width="120" height="50" as="geometry" />
        </mxCell>
        <mxCell id="ntYvt6KxzLv_E7mAvwDM-19" value="cookie" style="ellipse;whiteSpace=wrap;html=1;aspect=fixed;fillColor=#ffe6cc;strokeColor=#d79b00;" vertex="1" parent="1">
          <mxGeometry x="320" y="250" width="40" height="40" as="geometry" />
        </mxCell>
        <mxCell id="ntYvt6KxzLv_E7mAvwDM-20" value="&lt;font style=&quot;font-size: 14px;&quot;&gt;&lt;b&gt;Request +&lt;/b&gt;&lt;/font&gt;" style="text;html=1;align=center;verticalAlign=middle;resizable=0;points=[];autosize=1;strokeColor=none;fillColor=none;" vertex="1" parent="1">
          <mxGeometry x="225" y="270" width="90" height="30" as="geometry" />
        </mxCell>
        <mxCell id="ntYvt6KxzLv_E7mAvwDM-21" value="&lt;font style=&quot;font-size: 14px;&quot;&gt;&lt;b&gt;Response&lt;/b&gt;&lt;/font&gt;" style="text;html=1;align=center;verticalAlign=middle;resizable=0;points=[];autosize=1;strokeColor=none;fillColor=none;" vertex="1" parent="1">
          <mxGeometry x="235" y="368" width="90" height="30" as="geometry" />
        </mxCell>
        <mxCell id="ntYvt6KxzLv_E7mAvwDM-22" value="&lt;b&gt;User login/password&lt;/b&gt;" style="text;html=1;align=center;verticalAlign=middle;resizable=0;points=[];autosize=1;strokeColor=none;fillColor=none;" vertex="1" parent="1">
          <mxGeometry x="235" y="130" width="140" height="30" as="geometry" />
        </mxCell>
        <mxCell id="ntYvt6KxzLv_E7mAvwDM-23" value="" style="endArrow=classic;html=1;rounded=0;" edge="1" parent="1">
          <mxGeometry width="50" height="50" relative="1" as="geometry">
            <mxPoint x="520" y="160" as="sourcePoint" />
            <mxPoint x="520" y="240" as="targetPoint" />
          </mxGeometry>
        </mxCell>
        <mxCell id="ntYvt6KxzLv_E7mAvwDM-24" value="Authenticate user,&lt;div&gt;create user session&lt;/div&gt;&lt;div&gt;save user data in session&lt;/div&gt;" style="text;html=1;align=center;verticalAlign=middle;resizable=0;points=[];autosize=1;strokeColor=none;fillColor=none;" vertex="1" parent="1">
          <mxGeometry x="510" y="170" width="160" height="60" as="geometry" />
        </mxCell>
        <mxCell id="ntYvt6KxzLv_E7mAvwDM-25" value="User session&lt;div&gt;userData:{&lt;/div&gt;&lt;div&gt;userId:&#39;2655sgdjf&#39;,&lt;/div&gt;&lt;div&gt;.....&lt;/div&gt;&lt;div&gt;}&lt;/div&gt;" style="rounded=0;whiteSpace=wrap;html=1;" vertex="1" parent="1">
          <mxGeometry x="530" y="240" width="220" height="80" as="geometry" />
        </mxCell>
        <mxCell id="ntYvt6KxzLv_E7mAvwDM-26" value="User" style="shape=umlActor;verticalLabelPosition=bottom;verticalAlign=top;html=1;outlineConnect=0;" vertex="1" parent="1">
          <mxGeometry x="550" y="250" width="20" height="30" as="geometry" />
        </mxCell>
        <mxCell id="ntYvt6KxzLv_E7mAvwDM-30" value="" style="endArrow=classic;html=1;rounded=0;" edge="1" parent="1">
          <mxGeometry width="50" height="50" relative="1" as="geometry">
            <mxPoint x="520" y="320" as="sourcePoint" />
            <mxPoint x="520" y="400" as="targetPoint" />
          </mxGeometry>
        </mxCell>
        <mxCell id="ntYvt6KxzLv_E7mAvwDM-31" value="Check the cookies to associate&lt;div&gt;the request with the session,&lt;/div&gt;&lt;div&gt;get user from the session handle request&lt;/div&gt;" style="text;html=1;align=center;verticalAlign=middle;resizable=0;points=[];autosize=1;strokeColor=none;fillColor=none;" vertex="1" parent="1">
          <mxGeometry x="510" y="330" width="240" height="60" as="geometry" />
        </mxCell>
      </root>
    </mxGraphModel>
  </diagram>
</mxfile>
